<svg width="127" height="36" viewBox="0 0 127 36" fill="none" xmlns="http://www.w3.org/2000/svg">
<path fill-rule="evenodd" clip-rule="evenodd" d="M16.4084 6.11434C16.3382 6.15818 16.1379 6.60887 15.9631 7.11584C15.4749 8.5321 14.8325 9.54867 13.7261 10.6557C12.8399 11.5423 11.5884 12.4999 11.3186 12.4979C11.2579 12.4974 10.8857 12.2007 10.4917 11.8385C8.58672 10.0877 6.82037 9.28676 4.6107 9.17212C3.2 9.09897 2.04596 9.30598 0.813157 9.85335C0.165214 10.1411 0.107935 10.1927 0.137192 10.4626C0.160952 10.6826 0.250178 10.7839 0.488487 10.8614C2.35354 11.4681 3.62352 12.2154 4.77327 13.3828C5.56685 14.1885 6.48523 15.4343 6.48322 15.7023C6.48251 15.798 6.22754 16.1499 5.91666 16.4844C3.14059 19.4709 2.42172 22.9482 3.89162 26.2799C4.12632 26.8118 4.23567 26.949 4.42587 26.9504C4.73316 26.9527 4.82238 26.8266 5.0641 26.0487C5.49613 24.658 6.35534 23.3258 7.57335 22.1581C8.39024 21.375 9.48339 20.5894 9.75343 20.5914C9.85013 20.5921 10.0692 20.7422 10.2402 20.9249C10.7781 21.4995 12.193 22.5252 13.0581 22.968C14.3714 23.64 15.3324 23.877 16.776 23.8847C18.1675 23.892 19.0345 23.7232 20.1805 23.2215C21.3635 22.7036 21.3324 22.4184 20.0472 21.9989C18.656 21.5447 17.5383 20.8459 16.426 19.7348C15.5393 18.8488 14.5815 17.5985 14.5835 17.3294C14.5839 17.2687 14.8764 16.9018 15.2334 16.5141C17.4374 14.1204 18.3307 11.3616 17.7885 8.62246C17.587 7.60428 17.0592 6.28003 16.7983 6.13794C16.5675 6.0124 16.5712 6.01254 16.4084 6.11434ZM9.63789 14.6603C9.18171 14.8548 8.64987 15.4892 8.50485 16.0118C8.0213 17.7541 10.012 19.2909 11.5568 18.3679C12.0026 18.1017 12.4028 17.5567 12.552 17.013C12.7856 16.1613 12.3271 15.1645 11.5054 14.7379C11.0231 14.4875 10.13 14.4503 9.63789 14.6603Z" fill="white"/>
<path d="M28.3941 6H37.1241V9H31.6941V14.85H35.9541V17.85H31.6941V27H28.3941V6ZM38.7066 6H42.0066V24H47.4366V27H38.7066V6ZM53.6719 27.3C52.0519 27.3 50.8119 26.84 49.9519 25.92C49.0919 25 48.6619 23.7 48.6619 22.02V10.98C48.6619 9.3 49.0919 8 49.9519 7.08C50.8119 6.16 52.0519 5.7 53.6719 5.7C55.2919 5.7 56.5319 6.16 57.3919 7.08C58.2519 8 58.6819 9.3 58.6819 10.98V22.02C58.6819 23.7 58.2519 25 57.3919 25.92C56.5319 26.84 55.2919 27.3 53.6719 27.3ZM53.6719 24.3C54.8119 24.3 55.3819 23.61 55.3819 22.23V10.77C55.3819 9.39 54.8119 8.7 53.6719 8.7C52.5319 8.7 51.9619 9.39 51.9619 10.77V22.23C51.9619 23.61 52.5319 24.3 53.6719 24.3ZM60.1336 6H63.3136L64.7836 22.14H64.8436L66.4036 6H70.0036L71.5636 22.14H71.6236L73.0936 6H75.9436L73.8136 27H69.7036L68.2036 12.84H68.1436L66.6436 27H62.2636L60.1336 6ZM82.4175 6H87.4575C89.0975 6 90.3275 6.44 91.1475 7.32C91.9675 8.2 92.3775 9.49 92.3775 11.19V21.81C92.3775 23.51 91.9675 24.8 91.1475 25.68C90.3275 26.56 89.0975 27 87.4575 27H82.4175V6ZM87.3975 24C87.9375 24 88.3475 23.84 88.6275 23.52C88.9275 23.2 89.0775 22.68 89.0775 21.96V11.04C89.0775 10.32 88.9275 9.8 88.6275 9.48C88.3475 9.16 87.9375 9 87.3975 9H85.7175V24H87.3975ZM99.375 27.3C97.755 27.3 96.515 26.84 95.655 25.92C94.795 25 94.365 23.7 94.365 22.02V10.98C94.365 9.3 94.795 8 95.655 7.08C96.515 6.16 97.755 5.7 99.375 5.7C100.995 5.7 102.235 6.16 103.095 7.08C103.955 8 104.385 9.3 104.385 10.98V22.02C104.385 23.7 103.955 25 103.095 25.92C102.235 26.84 100.995 27.3 99.375 27.3ZM99.375 24.3C100.515 24.3 101.085 23.61 101.085 22.23V10.77C101.085 9.39 100.515 8.7 99.375 8.7C98.235 8.7 97.665 9.39 97.665 10.77V22.23C97.665 23.61 98.235 24.3 99.375 24.3ZM107.397 27.12C106.797 27.12 106.287 27.08 105.867 27V24C106.187 24.08 106.547 24.12 106.947 24.12C107.607 24.12 108.097 23.96 108.417 23.64C108.737 23.3 108.897 22.79 108.897 22.11V6H112.197V22.02C112.197 23.74 111.797 25.02 110.997 25.86C110.217 26.7 109.017 27.12 107.397 27.12ZM119.326 27.3C117.706 27.3 116.466 26.84 115.606 25.92C114.746 25 114.316 23.7 114.316 22.02V10.98C114.316 9.3 114.746 8 115.606 7.08C116.466 6.16 117.706 5.7 119.326 5.7C120.946 5.7 122.186 6.16 123.046 7.08C123.906 8 124.336 9.3 124.336 10.98V22.02C124.336 23.7 123.906 25 123.046 25.92C122.186 26.84 120.946 27.3 119.326 27.3ZM119.326 24.3C120.466 24.3 121.036 23.61 121.036 22.23V10.77C121.036 9.39 120.466 8.7 119.326 8.7C118.186 8.7 117.616 9.39 117.616 10.77V22.23C117.616 23.61 118.186 24.3 119.326 24.3Z" fill="white"/>
</svg>
