<svg width="15" height="15" viewBox="0 0 15 15" fill="none" xmlns="http://www.w3.org/2000/svg">
<path fill-rule="evenodd" clip-rule="evenodd" d="M11.677 0.0528556C11.6267 0.084305 11.483 0.407616 11.3576 0.7713C11.0073 1.78728 10.5465 2.51653 9.75277 3.31068C9.11702 3.9467 8.21921 4.63365 8.02566 4.63222C7.98212 4.63186 7.7151 4.41902 7.43245 4.15919C6.06584 2.90322 4.79869 2.32865 3.2135 2.24641C2.20148 2.19393 1.37358 2.34244 0.489184 2.7351C0.0243573 2.94152 -0.016734 2.97854 0.00425461 3.17216C0.0212997 3.32998 0.0853094 3.40265 0.256269 3.45824C1.59424 3.89347 2.5053 4.42956 3.33012 5.26702C3.89943 5.845 4.55826 6.7387 4.55682 6.93095C4.55631 6.9996 4.3734 7.25205 4.15037 7.49201C2.15886 9.63443 1.64315 12.1289 2.69764 14.519C2.86601 14.9006 2.94445 14.999 3.0809 15C3.30135 15.0016 3.36535 14.9112 3.53876 14.3531C3.84869 13.3555 4.46508 12.3998 5.33886 11.5621C5.92489 11.0004 6.7091 10.4368 6.90283 10.4382C6.9722 10.4387 7.12936 10.5464 7.25203 10.6775C7.63791 11.0897 8.65295 11.8255 9.27356 12.1431C10.2157 12.6252 10.9051 12.7952 11.9407 12.8007C12.939 12.806 13.561 12.6849 14.3831 12.325C15.2318 11.9535 15.2094 11.7489 14.2875 11.4479C13.2894 11.1221 12.4876 10.6208 11.6896 9.82374C11.0535 9.18815 10.3664 8.29122 10.3679 8.09818C10.3681 8.05464 10.578 7.79143 10.8341 7.51331C12.4152 5.79615 13.0561 3.81707 12.6671 1.8521C12.5225 1.12169 12.1439 0.171716 11.9567 0.0697855C11.7912 -0.0202729 11.7938 -0.0201725 11.677 0.0528556ZM6.81994 6.18345C6.49268 6.32298 6.11115 6.77808 6.00711 7.15298C5.66022 8.40285 7.08832 9.5053 8.19654 8.84317C8.51636 8.65221 8.80345 8.26124 8.91049 7.87121C9.07807 7.26022 8.74915 6.54515 8.15967 6.23912C7.81367 6.05949 7.17297 6.03281 6.81994 6.18345Z" fill="white"/>
</svg>
